<?xml version="1.0" encoding="utf-8"?>
<!-- Generator: Adobe Illustrator 18.1.1, SVG Export Plug-In . SVG Version: 6.00 Build 0)  -->
<svg version="1.1" id="Calque_1" xmlns="http://www.w3.org/2000/svg" xmlns:xlink="http://www.w3.org/1999/xlink" x="0px" y="0px"
	 viewBox="0 0 310.7 304.3" enable-background="new 0 0 310.7 304.3" xml:space="preserve">
<rect x="1.5" y="251.3" fill="#FFFFFF" stroke="#ED1C24" stroke-width="0.9907" stroke-miterlimit="10" width="307.8" height="52.1"/>
<g>
	<path fill="#ED1C24" d="M29.6,289.1c-0.8,0-1.4-0.2-1.9-0.7c-0.5-0.4-0.7-1.2-0.7-2.2c-0.8,1-1.8,1.7-2.9,2.2
		c-1.1,0.4-2.3,0.7-3.6,0.7c-0.8,0-1.6-0.1-2.4-0.3c-0.7-0.2-1.4-0.5-1.9-0.9c-0.6-0.4-1-1-1.3-1.6c-0.3-0.7-0.5-1.4-0.5-2.4
		c0-1,0.2-1.9,0.5-2.6c0.4-0.7,0.8-1.2,1.4-1.6c0.6-0.4,1.2-0.7,2-0.9c0.7-0.2,1.5-0.4,2.3-0.5c0.8-0.2,1.6-0.3,2.4-0.4
		c0.7-0.1,1.4-0.2,2-0.4c0.6-0.2,1-0.4,1.4-0.7c0.3-0.3,0.5-0.7,0.5-1.3c0-0.7-0.1-1.2-0.4-1.6c-0.2-0.4-0.6-0.7-1-0.9
		c-0.4-0.2-0.8-0.4-1.3-0.4c-0.5-0.1-1-0.1-1.4-0.1c-1.3,0-2.4,0.2-3.2,0.7c-0.9,0.5-1.3,1.4-1.4,2.8h-3c0-1.1,0.3-2.1,0.7-2.9
		c0.4-0.8,1-1.4,1.7-1.9c0.7-0.5,1.5-0.8,2.5-1.1c0.9-0.2,1.9-0.3,2.9-0.3c0.8,0,1.7,0.1,2.5,0.2c0.8,0.1,1.6,0.4,2.2,0.7
		c0.7,0.4,1.2,0.9,1.6,1.6c0.4,0.7,0.6,1.5,0.6,2.6v9.5c0,0.7,0,1.2,0.1,1.6c0.1,0.3,0.4,0.5,0.8,0.5c0.3,0,0.6-0.1,0.9-0.2v2.4
		C31.3,288.9,30.5,289.1,29.6,289.1z M25.4,279.8c-0.6,0.1-1.3,0.2-1.9,0.3c-0.7,0.1-1.4,0.2-2.1,0.3c-0.7,0.1-1.3,0.3-1.9,0.5
		c-0.5,0.2-1,0.6-1.3,1c-0.3,0.4-0.5,1-0.5,1.8c0,0.5,0.1,0.9,0.3,1.3c0.2,0.3,0.5,0.6,0.8,0.8c0.3,0.2,0.7,0.4,1.1,0.5
		c0.4,0.1,0.9,0.1,1.3,0.1c1,0,1.9-0.1,2.6-0.4c0.7-0.3,1.3-0.6,1.7-1c0.5-0.4,0.8-0.9,1-1.4c0.2-0.5,0.3-0.9,0.3-1.4v-3.1
		C26.5,279.4,26,279.6,25.4,279.8z"/>
	<path fill="#ED1C24" d="M38,284.5c0.3,0.5,0.7,0.8,1.1,1.1c0.5,0.3,1,0.5,1.6,0.6c0.6,0.1,1.2,0.2,1.8,0.2c0.5,0,1,0,1.5-0.1
		c0.5-0.1,1-0.2,1.4-0.4c0.4-0.2,0.8-0.5,1.1-0.8c0.3-0.4,0.4-0.8,0.4-1.4c0-0.8-0.3-1.4-0.9-1.8c-0.6-0.4-1.3-0.7-2.2-1
		c-0.9-0.2-1.9-0.5-2.9-0.7c-1-0.2-2-0.5-2.9-0.9s-1.6-0.9-2.2-1.6c-0.6-0.7-0.9-1.6-0.9-2.8c0-0.9,0.2-1.7,0.6-2.4
		c0.4-0.7,1-1.2,1.6-1.6c0.7-0.4,1.4-0.7,2.2-0.9c0.8-0.2,1.6-0.3,2.4-0.3c1,0,2,0.1,2.9,0.3c0.9,0.2,1.7,0.5,2.3,0.9
		c0.7,0.4,1.2,1,1.6,1.8c0.4,0.7,0.6,1.7,0.7,2.8h-3c0-0.6-0.2-1.1-0.5-1.5c-0.3-0.4-0.6-0.7-1-0.9c-0.4-0.2-0.9-0.4-1.3-0.5
		c-0.5-0.1-1-0.2-1.5-0.2c-0.5,0-0.9,0-1.4,0.1c-0.5,0.1-0.9,0.2-1.3,0.4c-0.4,0.2-0.7,0.4-0.9,0.7c-0.2,0.3-0.4,0.7-0.4,1.2
		c0,0.5,0.2,1,0.6,1.3c0.4,0.3,0.8,0.6,1.4,0.9c0.6,0.2,1.2,0.4,1.9,0.6c0.7,0.2,1.4,0.3,2.1,0.5c0.8,0.2,1.5,0.4,2.2,0.6
		c0.7,0.2,1.4,0.6,1.9,0.9c0.6,0.4,1,0.9,1.4,1.5c0.3,0.6,0.5,1.3,0.5,2.2c0,1.1-0.2,2-0.7,2.8c-0.5,0.7-1.1,1.3-1.8,1.8
		c-0.7,0.5-1.6,0.8-2.5,0.9c-0.9,0.2-1.9,0.3-2.8,0.3c-1,0-2-0.1-2.9-0.3c-0.9-0.2-1.7-0.6-2.5-1.1c-0.7-0.5-1.3-1.1-1.7-1.9
		c-0.4-0.8-0.7-1.8-0.7-2.9h3C37.6,283.5,37.7,284.1,38,284.5z"/>
	<path fill="#ED1C24" d="M57,284.5c0.3,0.5,0.7,0.8,1.1,1.1c0.5,0.3,1,0.5,1.6,0.6c0.6,0.1,1.2,0.2,1.8,0.2c0.5,0,1,0,1.5-0.1
		c0.5-0.1,1-0.2,1.4-0.4c0.4-0.2,0.8-0.5,1.1-0.8c0.3-0.4,0.4-0.8,0.4-1.4c0-0.8-0.3-1.4-0.9-1.8c-0.6-0.4-1.3-0.7-2.2-1
		c-0.9-0.2-1.9-0.5-2.9-0.7c-1-0.2-2-0.5-2.9-0.9s-1.6-0.9-2.2-1.6c-0.6-0.7-0.9-1.6-0.9-2.8c0-0.9,0.2-1.7,0.6-2.4
		c0.4-0.7,1-1.2,1.6-1.6c0.7-0.4,1.4-0.7,2.2-0.9c0.8-0.2,1.6-0.3,2.4-0.3c1,0,2,0.1,2.9,0.3c0.9,0.2,1.7,0.5,2.3,0.9s1.2,1,1.6,1.8
		c0.4,0.7,0.6,1.7,0.7,2.8h-3c0-0.6-0.2-1.1-0.5-1.5c-0.3-0.4-0.6-0.7-1-0.9c-0.4-0.2-0.9-0.4-1.3-0.5c-0.5-0.1-1-0.2-1.5-0.2
		c-0.5,0-0.9,0-1.4,0.1c-0.5,0.1-0.9,0.2-1.3,0.4c-0.4,0.2-0.7,0.4-0.9,0.7c-0.2,0.3-0.4,0.7-0.4,1.2c0,0.5,0.2,1,0.6,1.3
		c0.4,0.3,0.8,0.6,1.4,0.9c0.6,0.2,1.2,0.4,1.9,0.6c0.7,0.2,1.4,0.3,2.1,0.5c0.8,0.2,1.5,0.4,2.2,0.6c0.7,0.2,1.4,0.6,1.9,0.9
		c0.6,0.4,1,0.9,1.4,1.5c0.3,0.6,0.5,1.3,0.5,2.2c0,1.1-0.2,2-0.7,2.8c-0.5,0.7-1.1,1.3-1.8,1.8c-0.7,0.5-1.6,0.8-2.5,0.9
		c-0.9,0.2-1.9,0.3-2.8,0.3c-1,0-2-0.1-2.9-0.3c-0.9-0.2-1.7-0.6-2.5-1.1c-0.7-0.5-1.3-1.1-1.7-1.9c-0.4-0.8-0.7-1.8-0.7-2.9h3
		C56.5,283.5,56.7,284.1,57,284.5z"/>
	<path fill="#ED1C24" d="M86,288.7v-2.9h-0.1c-0.6,1.1-1.5,2-2.5,2.5c-1,0.5-2.2,0.8-3.5,0.8c-1.2,0-2.2-0.2-3-0.5
		c-0.8-0.3-1.5-0.8-2-1.4c-0.5-0.6-0.9-1.3-1.1-2.1c-0.2-0.8-0.3-1.7-0.3-2.7v-12.1h3v12.5c0,1.1,0.3,2,1,2.7c0.7,0.7,1.6,1,2.7,1
		c0.9,0,1.7-0.1,2.4-0.4c0.7-0.3,1.2-0.7,1.7-1.2c0.5-0.5,0.8-1.1,1-1.8c0.2-0.7,0.3-1.5,0.3-2.3v-10.4h3v18.4H86z"/>
	<path fill="#ED1C24" d="M97.3,270.2v3.9h0.1c0.7-1.5,1.6-2.6,2.7-3.3c1.1-0.7,2.4-1,4.1-1v3.2c-1.2,0-2.2,0.2-3.1,0.5
		c-0.9,0.3-1.5,0.8-2.1,1.5c-0.5,0.6-0.9,1.4-1.1,2.3c-0.2,0.9-0.4,2-0.4,3.2v8.2h-3v-18.4H97.3z"/>
	<path fill="#ED1C24" d="M119.9,287.5c-1.4,1-3.1,1.6-5.2,1.6c-1.5,0-2.8-0.2-3.8-0.7c-1.1-0.5-2-1.1-2.7-2
		c-0.7-0.9-1.3-1.9-1.7-3.1c-0.4-1.2-0.6-2.5-0.6-3.9c0-1.4,0.2-2.7,0.6-3.9c0.4-1.2,1-2.2,1.8-3c0.8-0.9,1.7-1.5,2.7-2
		c1.1-0.5,2.2-0.7,3.5-0.7c1.6,0,3,0.3,4.1,1c1.1,0.7,1.9,1.5,2.6,2.6c0.7,1,1.1,2.2,1.4,3.4c0.2,1.2,0.4,2.4,0.3,3.5h-13.8
		c0,0.8,0.1,1.6,0.3,2.3c0.2,0.7,0.6,1.4,1,1.9c0.5,0.6,1.1,1,1.8,1.3c0.7,0.3,1.6,0.5,2.6,0.5c1.3,0,2.3-0.3,3.2-0.9
		c0.8-0.6,1.4-1.5,1.6-2.7h3C122.2,284.9,121.3,286.4,119.9,287.5z M119.2,275.6c-0.3-0.6-0.6-1.2-1.1-1.7c-0.5-0.5-1-0.8-1.6-1.1
		c-0.6-0.3-1.3-0.4-2.1-0.4c-0.8,0-1.5,0.1-2.1,0.4c-0.6,0.3-1.2,0.6-1.6,1.1c-0.5,0.5-0.8,1-1.1,1.7c-0.3,0.6-0.4,1.3-0.5,2h10.6
		C119.6,277,119.4,276.3,119.2,275.6z"/>
	<path fill="#ED1C24" d="M139.5,288.7v-2.9h-0.1c-0.6,1.1-1.5,2-2.5,2.5c-1,0.5-2.2,0.8-3.5,0.8c-1.2,0-2.2-0.2-3-0.5
		c-0.8-0.3-1.5-0.8-2-1.4c-0.5-0.6-0.9-1.3-1.1-2.1c-0.2-0.8-0.3-1.7-0.3-2.7v-12.1h3v12.5c0,1.1,0.3,2,1,2.7c0.7,0.7,1.6,1,2.7,1
		c0.9,0,1.7-0.1,2.4-0.4c0.7-0.3,1.2-0.7,1.7-1.2c0.5-0.5,0.8-1.1,1-1.8c0.2-0.7,0.3-1.5,0.3-2.3v-10.4h3v18.4H139.5z"/>
	<path fill="#ED1C24" d="M150.8,270.2v3.9h0.1c0.7-1.5,1.6-2.6,2.7-3.3c1.1-0.7,2.4-1,4.1-1v3.2c-1.2,0-2.2,0.2-3.1,0.5
		c-0.9,0.3-1.5,0.8-2.1,1.5c-0.5,0.6-0.9,1.4-1.1,2.3c-0.2,0.9-0.4,2-0.4,3.2v8.2h-3v-18.4H150.8z"/>
	<path fill="#ED1C24" d="M174.9,270.2v2.7h0.1c1.4-2.1,3.4-3.1,6-3.1c1.1,0,2.2,0.2,3.1,0.7c0.9,0.5,1.6,1.3,2,2.4
		c0.6-1,1.4-1.8,2.4-2.3c1-0.5,2.1-0.8,3.3-0.8c0.9,0,1.8,0.1,2.5,0.3c0.7,0.2,1.4,0.5,1.9,0.9c0.5,0.4,1,1,1.2,1.7
		c0.3,0.7,0.4,1.5,0.4,2.4v13.5h-3v-12.1c0-0.6,0-1.1-0.1-1.6c-0.1-0.5-0.3-0.9-0.5-1.3c-0.3-0.4-0.6-0.7-1.1-0.9
		c-0.5-0.2-1.1-0.3-1.8-0.3c-1.5,0-2.7,0.4-3.5,1.3c-0.9,0.9-1.3,2-1.3,3.4v11.5h-3v-12.1c0-0.6-0.1-1.1-0.2-1.6
		c-0.1-0.5-0.3-0.9-0.6-1.3c-0.3-0.4-0.6-0.7-1.1-0.9c-0.4-0.2-1-0.3-1.7-0.3c-0.9,0-1.6,0.2-2.3,0.5c-0.6,0.4-1.1,0.8-1.5,1.3
		c-0.4,0.5-0.7,1-0.9,1.6c-0.2,0.5-0.3,1-0.3,1.3v11.5h-3v-18.4H174.9z"/>
	<path fill="#ED1C24" d="M203.7,266.9v-3.7h3v3.7H203.7z M206.8,270.2v18.4h-3v-18.4H206.8z"/>
	<path fill="#ED1C24" d="M215.8,263.2v25.5h-3v-25.5H215.8z"/>
	<path fill="#ED1C24" d="M221.8,266.9v-3.7h3v3.7H221.8z M224.8,270.2v18.4h-3v-18.4H224.8z"/>
	<path fill="#ED1C24" d="M238.5,270.2v2.7h-3.7v11.4c0,0.4,0,0.6,0.1,0.9c0.1,0.2,0.2,0.4,0.3,0.5c0.2,0.1,0.4,0.2,0.7,0.2
		c0.3,0,0.7,0.1,1.2,0.1h1.4v2.7h-2.3c-0.8,0-1.5-0.1-2-0.2c-0.6-0.1-1-0.3-1.4-0.6s-0.6-0.7-0.8-1.2c-0.2-0.5-0.2-1.2-0.2-2.1
		v-11.7h-3.1v-2.7h3.1v-5.5h3v5.5H238.5z"/>
	<path fill="#ED1C24" d="M257.1,289.1c-0.8,0-1.4-0.2-1.9-0.7c-0.5-0.4-0.7-1.2-0.7-2.2c-0.8,1-1.8,1.7-2.9,2.2
		c-1.1,0.4-2.3,0.7-3.6,0.7c-0.8,0-1.6-0.1-2.4-0.3c-0.7-0.2-1.4-0.5-1.9-0.9c-0.6-0.4-1-1-1.3-1.6c-0.3-0.7-0.5-1.4-0.5-2.4
		c0-1,0.2-1.9,0.5-2.6c0.4-0.7,0.8-1.2,1.4-1.6c0.6-0.4,1.2-0.7,2-0.9c0.7-0.2,1.5-0.4,2.3-0.5c0.8-0.2,1.6-0.3,2.4-0.4
		c0.7-0.1,1.4-0.2,2-0.4s1-0.4,1.4-0.7c0.3-0.3,0.5-0.7,0.5-1.3c0-0.7-0.1-1.2-0.4-1.6c-0.2-0.4-0.6-0.7-1-0.9
		c-0.4-0.2-0.8-0.4-1.3-0.4c-0.5-0.1-1-0.1-1.4-0.1c-1.3,0-2.4,0.2-3.2,0.7c-0.9,0.5-1.3,1.4-1.4,2.8h-3c0-1.1,0.3-2.1,0.7-2.9
		c0.4-0.8,1-1.4,1.7-1.9c0.7-0.5,1.5-0.8,2.5-1.1c0.9-0.2,1.9-0.3,2.9-0.3c0.8,0,1.7,0.1,2.5,0.2c0.8,0.1,1.6,0.4,2.2,0.7
		c0.7,0.4,1.2,0.9,1.6,1.6c0.4,0.7,0.6,1.5,0.6,2.6v9.5c0,0.7,0,1.2,0.1,1.6c0.1,0.3,0.4,0.5,0.8,0.5c0.3,0,0.6-0.1,0.9-0.2v2.4
		C258.8,288.9,258.1,289.1,257.1,289.1z M252.9,279.8c-0.6,0.1-1.3,0.2-1.9,0.3c-0.7,0.1-1.4,0.2-2.1,0.3c-0.7,0.1-1.3,0.3-1.9,0.5
		c-0.5,0.2-1,0.6-1.3,1c-0.3,0.4-0.5,1-0.5,1.8c0,0.5,0.1,0.9,0.3,1.3c0.2,0.3,0.5,0.6,0.8,0.8c0.3,0.2,0.7,0.4,1.1,0.5
		c0.4,0.1,0.9,0.1,1.3,0.1c1,0,1.9-0.1,2.6-0.4c0.7-0.3,1.3-0.6,1.7-1c0.5-0.4,0.8-0.9,1-1.4c0.2-0.5,0.3-0.9,0.3-1.4v-3.1
		C254,279.4,253.5,279.6,252.9,279.8z"/>
	<path fill="#ED1C24" d="M266.4,269.2v3.1h0.1c1.3-2.4,3.4-3.5,6.3-3.5c1.3,0,2.3,0.2,3.2,0.5c0.9,0.4,1.5,0.8,2.1,1.5
		c0.5,0.6,0.9,1.4,1.1,2.2c0.2,0.9,0.3,1.8,0.3,2.9v12.8h-3.2v-13.2c0-1.2-0.4-2.2-1.1-2.9c-0.7-0.7-1.7-1.1-2.9-1.1
		c-1,0-1.8,0.2-2.5,0.5s-1.3,0.7-1.8,1.3c-0.5,0.6-0.8,1.2-1.1,1.9c-0.2,0.7-0.4,1.5-0.4,2.4v11h-3.2v-19.5H266.4z"/>
	<path fill="#ED1C24" d="M292.6,269.2v2.8h-3.9v12.1c0,0.4,0,0.7,0.1,0.9c0.1,0.2,0.2,0.4,0.4,0.5c0.2,0.1,0.4,0.2,0.7,0.2
		c0.3,0,0.7,0.1,1.2,0.1h1.5v2.8h-2.4c-0.8,0-1.5-0.1-2.1-0.2c-0.6-0.1-1.1-0.3-1.4-0.6c-0.4-0.3-0.6-0.7-0.8-1.3
		c-0.2-0.6-0.3-1.3-0.3-2.2V272h-3.3v-2.8h3.3v-5.8h3.2v5.8H292.6z"/>
</g>
<line fill="none" stroke="#000000" stroke-width="0.4953" stroke-miterlimit="10" x1="295.9" y1="256.4" x2="295.9" y2="299.1"/>
<g>
	<g>
		<rect x="43.4" y="0.9" fill="#008061" width="223.9" height="223.9"/>
		<g>
			<g>
				<polygon fill="#ED1C24" points="67.1,182.6 243.3,182.6 155.3,20.6 				"/>
			</g>
			<path d="M155.3,112.9"/>
			<g>
				<path fill="#FFFFFF" d="M197.8,106.1c-0.6,2.1-0.6,4.3-0.7,6.6v31.9c0.1,2.2,0.4,4.4,0.9,6.5h-16.2c0.5-2,0.7-4.2,0.8-6.4v-13.1
					V114c-0.3-2.6-0.3-5.4-1.1-7.8l0,0L197.8,106.1z"/>
				<path fill="#FFFFFF" d="M252.3,106.1l0,9.6v0.1c-1.6-0.6-3.4-0.7-5.1-0.8h-16.4l-8.5,0v12l0,0h24c2.1-0.2,4.3-0.2,6.1-0.9v11
					c-1.9-0.7-4-0.8-6.2-0.9l-4.7-0.1l-9.3,0h-9.8l0,0v8.1c0.1,2.4,0.3,4.7,0.8,6.9h-15.8c1.1-3.4,0.7-7.3,0.7-11.2v-27.6
					c-0.2-2.1-0.3-4.4-0.9-6.3H243H252.3z"/>
				<path fill="#FFFFFF" d="M122,116.6V128V144c0.1,2.4,0.3,4.9,0.9,7.1H115h0h-7.7c1.1-3.8,0.7-7.6,0.8-11.5c0,0,0.1-23.1,0-23.4
					l-12.5,27.4c-1,2.4-2.1,4.8-2.5,7.4H82.9c-0.5-2.5-1.4-4.9-2.4-7.1l-12.9-27.7l0.1,29.1c0.2,2,0.3,3.9,0.9,5.8H58.1
					c0.7-2.6,0.7-5.4,0.8-8.3v-26.5c-0.1-3.5,0-7.1-1-10.4h0c0-0.1,0,0,0.1,0H78c0.5,3.4,2.2,6.1,3.5,9.2l9.2,19.9l0,0l8.8-18.8v0
					c1.5-3.3,3.2-6.5,3.9-10.2c-0.2-0.1,0.1,0,0,0h19.5C121.9,109.3,122.1,113,122,116.6z"/>
				<path fill="#FFFFFF" d="M143.3,110.7c0.6-1.5,1.1-3,1.3-4.7h6.1h9.4c0.3,1.9,1.1,3.5,1.8,5.2l18.6,39.9l0,0H164
					c-0.2-0.7-0.3-1.4-0.5-2.1c-0.8-2.7-2-5.4-3.1-8h-0.1h-17.6H139c-1.1,1.7-1.6,3.7-2.5,5.5c-0.5,1.4-0.9,3-1.3,4.5H125l5.5-12.1
					L143.3,110.7z M149.7,117l-7.3,17.1h14.8L149.7,117z"/>
			</g>
		</g>
	</g>
</g>
</svg>
